<svg version="1.0" id="Layer_1" xmlns="http://www.w3.org/2000/svg" xmlns:xlink="http://www.w3.org/1999/xlink" x="0px" y="0px" width="708.66px" height="708.66px" viewBox="0 0 708.66 708.66" enable-background="new 0 0 708.66 708.66" xml:space="preserve">
<g>
<path fill="#785121" stroke="#373431" stroke-width="12" stroke-linecap="round" stroke-linejoin="round" stroke-miterlimit="10" d="
		M88.573,235.117l234.447,234.435c30.004,0,59.996,11.449,82.885,34.338l116.174,116.186l97.997-97.998L503.89,405.904
		c-22.889-22.887-34.326-52.874-34.338-82.884L235.118,88.579C154.174,88.573,88.573,154.179,88.573,235.117z"></path>
<path fill="#785121" stroke="#373431" stroke-width="12" stroke-linecap="round" stroke-linejoin="round" stroke-miterlimit="10" d="
		M197.435,241.398c8.094,8.099,8.094,21.209,0,29.309c-8.105,8.087-21.215,8.087-29.296,0c-8.105-8.099-8.105-21.209-0.013-29.309
		C176.22,233.305,189.329,233.305,197.435,241.398z"></path>
<path fill="#785121" stroke="#373431" stroke-width="12" stroke-linecap="round" stroke-linejoin="round" stroke-miterlimit="10" d="
		M256.053,300.01c8.081,8.1,8.081,21.209-0.013,29.309c-8.093,8.087-21.203,8.087-29.296,0c-8.094-8.1-8.094-21.209-0.013-29.309
		C234.837,291.916,247.947,291.916,256.053,300.01z"></path>
<path fill="#785121" stroke="#373431" stroke-width="12" stroke-linecap="round" stroke-linejoin="round" stroke-miterlimit="10" d="
		M314.657,358.621c8.094,8.094,8.094,21.209-0.012,29.309c-8.08,8.094-21.191,8.094-29.297,0c-8.093-8.1-8.093-21.215,0-29.309
		C293.454,350.528,306.565,350.528,314.657,358.621z"></path>
<polygon fill="none" stroke="#373431" stroke-width="12" stroke-linecap="round" stroke-linejoin="round" stroke-miterlimit="10" points="
		533.212,435.215 435.214,533.211 405.905,503.902 503.89,405.904 	"></polygon>
<path fill="#785121" stroke="#373431" stroke-width="12" stroke-linecap="round" stroke-linejoin="round" stroke-miterlimit="10" d="
		M462.239,506.209l86.854,86.854L462.239,506.209z"></path>
<path fill="#785121" stroke="#373431" stroke-width="12" stroke-linecap="round" stroke-linejoin="round" stroke-miterlimit="10" d="
		M484.212,484.213l86.877,86.863L484.212,484.213z"></path>
<path fill="#785121" stroke="#373431" stroke-width="12" stroke-linecap="round" stroke-linejoin="round" stroke-miterlimit="10" d="
		M506.208,462.24l86.853,86.852L506.208,462.24z"></path>
<path fill="#785121" stroke="#373431" stroke-width="12" stroke-linecap="round" stroke-linejoin="round" stroke-miterlimit="10" d="
		M131.493,307.334l36.633-36.639L131.493,307.334z"></path>
<polygon fill="none" stroke="#373431" stroke-width="12" stroke-linecap="round" stroke-linejoin="round" stroke-miterlimit="10" points="
		146.153,321.994 131.493,336.649 102.196,307.334 116.845,292.685 	"></polygon>
<path fill="#785121" stroke="#373431" stroke-width="12" stroke-linecap="round" stroke-linejoin="round" stroke-miterlimit="10" d="
		M190.099,365.939l36.633-36.633L190.099,365.939z"></path>
<polygon fill="none" stroke="#373431" stroke-width="12" stroke-linecap="round" stroke-linejoin="round" stroke-miterlimit="10" points="
		204.759,380.599 190.11,395.254 160.79,365.945 175.45,351.291 	"></polygon>
<path fill="#785121" stroke="#373431" stroke-width="12" stroke-linecap="round" stroke-linejoin="round" stroke-miterlimit="10" d="
		M248.704,424.551l36.645-36.633L248.704,424.551z"></path>
<polygon fill="none" stroke="#373431" stroke-width="12" stroke-linecap="round" stroke-linejoin="round" stroke-miterlimit="10" points="
		263.377,439.211 248.716,453.865 219.407,424.556 234.056,409.902 	"></polygon>
<path fill="#785121" stroke="#373431" stroke-width="12" stroke-linecap="round" stroke-linejoin="round" stroke-miterlimit="10" d="
		M358.614,314.658c-8.08-8.093-8.105-21.204,0-29.297c8.094-8.105,21.203-8.093,29.297,0c8.094,8.093,8.105,21.204,0.012,29.297
		C379.817,322.757,366.708,322.757,358.614,314.658z"></path>
<path fill="#785121" stroke="#373431" stroke-width="12" stroke-linecap="round" stroke-linejoin="round" stroke-miterlimit="10" d="
		M299.997,256.04c-8.08-8.087-8.08-21.197,0-29.297c8.105-8.099,21.215-8.087,29.297,0c8.105,8.1,8.105,21.21,0.012,29.303
		C321.212,264.146,308.103,264.146,299.997,256.04z"></path>
<path fill="#785121" stroke="#373431" stroke-width="12" stroke-linecap="round" stroke-linejoin="round" stroke-miterlimit="10" d="
		M241.393,197.428c-8.094-8.087-8.094-21.203,0-29.296c8.093-8.093,21.203-8.087,29.296,0c8.094,8.093,8.105,21.209,0.013,29.303
		C262.596,205.534,249.485,205.528,241.393,197.428z"></path>
<path fill="#785121" stroke="#373431" stroke-width="12" stroke-linecap="round" stroke-linejoin="round" stroke-miterlimit="10" d="
		M424.569,248.722l-36.646,36.639L424.569,248.722z"></path>
<polygon fill="none" stroke="#373431" stroke-width="12" stroke-linecap="round" stroke-linejoin="round" stroke-miterlimit="10" points="
		409.896,234.068 424.544,219.419 453.866,248.722 439.218,263.37 	"></polygon>
<path fill="#785121" stroke="#373431" stroke-width="12" stroke-linecap="round" stroke-linejoin="round" stroke-miterlimit="10" d="
		M365.952,190.116l-36.635,36.639L365.952,190.116z"></path>
<polygon fill="none" stroke="#373431" stroke-width="12" stroke-linecap="round" stroke-linejoin="round" stroke-miterlimit="10" points="
		351.29,175.456 365.938,160.808 395.247,190.116 380.599,204.771 	"></polygon>
<path fill="#785121" stroke="#373431" stroke-width="12" stroke-linecap="round" stroke-linejoin="round" stroke-miterlimit="10" d="
		M307.347,131.499l-36.646,36.646L307.347,131.499z"></path>
<polygon fill="none" stroke="#373431" stroke-width="12" stroke-linecap="round" stroke-linejoin="round" stroke-miterlimit="10" points="
		292.673,116.844 307.321,102.196 336.642,131.499 321.993,146.154 	"></polygon>
<path fill="#785121" stroke="#373431" stroke-width="12" stroke-linecap="round" stroke-linejoin="round" stroke-miterlimit="10" d="
		M454.915,454.904L226.731,226.738c-12.134-12.14-31.799-12.146-43.944,0.006l-14.661,14.655l14.661-14.655
		c12.146-12.152,31.811-12.146,43.944-0.006L454.915,454.904z"></path>
<path fill="#785121" stroke="#373431" stroke-width="12" stroke-linecap="round" stroke-linejoin="round" stroke-miterlimit="10" d="
		M454.915,454.904L285.349,285.349c-12.133-12.14-31.811-12.14-43.944,0.006l-14.673,14.654l14.673-14.654
		c12.134-12.146,31.812-12.146,43.944-0.006L454.915,454.904z"></path>
<path fill="#785121" stroke="#373431" stroke-width="12" stroke-linecap="round" stroke-linejoin="round" stroke-miterlimit="10" d="
		M454.915,454.904L343.966,343.96c-12.133-12.14-31.811-12.14-43.957,0.007l-14.66,14.654l14.66-14.654
		c12.146-12.146,31.824-12.146,43.957-0.007L454.915,454.904z"></path>
<path fill="#785121" stroke="#373431" stroke-width="12" stroke-linecap="round" stroke-linejoin="round" stroke-miterlimit="10" d="
		M454.915,454.904L226.731,226.738c-12.134-12.14-12.134-31.812,0.013-43.957l14.66-14.655l-14.66,14.655
		c-12.146,12.146-12.146,31.817-0.013,43.957L454.915,454.904z"></path>
<path fill="#785121" stroke="#373431" stroke-width="12" stroke-linecap="round" stroke-linejoin="round" stroke-miterlimit="10" d="
		M454.915,454.904L285.349,285.349c-12.133-12.14-12.133-31.805,0-43.957l14.674-14.654l-14.674,14.654
		c-12.133,12.152-12.133,31.817,0,43.957L454.915,454.904z"></path>
<path fill="#785121" stroke="#373431" stroke-width="12" stroke-linecap="round" stroke-linejoin="round" stroke-miterlimit="10" d="
		M454.915,454.904L343.966,343.96c-12.133-12.14-12.145-31.805,0-43.951l14.662-14.661l-14.662,14.661
		c-12.145,12.146-12.133,31.811,0,43.951L454.915,454.904z"></path>
</g>
</svg>